<?xml version="1.0" encoding="UTF-8" standalone="no"?>
<svg
   xmlns:dc="http://purl.org/dc/elements/1.1/"
   xmlns:cc="http://creativecommons.org/ns#"
   xmlns:rdf="http://www.w3.org/1999/02/22-rdf-syntax-ns#"
   xmlns:svg="http://www.w3.org/2000/svg"
   xmlns="http://www.w3.org/2000/svg"
   viewBox="0 0 271.95999 55.093334"
   height="55.093334"
   width="271.95999"
   xml:space="preserve"
   id="svg2"
   version="1.1"><metadata
     id="metadata8"><rdf:RDF><cc:Work
         rdf:about=""><dc:format>image/svg+xml</dc:format><dc:type
           rdf:resource="http://purl.org/dc/dcmitype/StillImage" /></cc:Work></rdf:RDF></metadata><defs
     id="defs6" /><g
     transform="matrix(1.3333333,0,0,-1.3333333,0,55.093333)"
     id="g10"><g
       transform="scale(0.1)"
       id="g12"><path
         id="path14"
         style="fill:#ec1b29;fill-opacity:1;fill-rule:nonzero;stroke:none"
         d="m 1443.41,114.453 c -13.67,-13.625 -30.2,-20.3944 -49.72,-20.3944 -19,0 -35.39,6.6294 -49.3,19.8944 -13.91,13.332 -20.87,29.949 -20.87,50.039 0,19.477 6.83,36.02 20.45,49.594 13.62,13.609 30.16,20.375 49.72,20.375 19.52,0 36.05,-6.766 49.72,-20.375 13.58,-13.574 20.4,-30.117 20.4,-49.594 0,-19.433 -6.82,-35.976 -20.4,-49.539 z m 66.87,165.777 c -32.04,31.911 -70.8,47.782 -116.57,47.782 -45.85,0 -84.61,-15.871 -116.55,-47.782 -31.93,-31.82 -47.94,-70.605 -47.94,-116.261 0,-47.102 16.35,-86.051 48.94,-117.3206 32.6,-31.1054 71.04,-46.632775 115.55,-46.632775 45.77,0 84.53,15.871075 116.57,47.812475 31.83,31.7891 47.83,70.5669 47.83,116.1409 0,45.656 -16,84.441 -47.83,116.261" /><path
         id="path16"
         style="fill:#ec1b29;fill-opacity:1;fill-rule:nonzero;stroke:none"
         d="M 206.43,5.69922 110.816,156.402 V 5.69922 H 0 V 406.906 H 110.816 V 196.301 L 211.504,322.313 H 339.41 L 213.402,183.629 345.746,5.69922 H 206.43" /><path
         id="path18"
         style="fill:#ec1b29;fill-opacity:1;fill-rule:nonzero;stroke:none"
         d="M 900.492,322.313 806.777,5.69922 H 678.23 L 628.836,170.34 584.512,5.69922 H 455.965 L 361.617,322.313 H 484.461 L 531.953,91.8125 589.574,322.313 h 98.149 l 57.629,-229.231 46.226,229.231 h 108.914" /><path
         id="path20"
         style="fill:#ec1b29;fill-opacity:1;fill-rule:nonzero;stroke:none"
         d="m 911.949,88.0195 101.321,22.7935 c 6.32,-24.6919 27.85,-41.1567 55.08,-41.1567 20.26,0 32.93,8.2304 32.93,21.5273 0,50.6604 -184.268,21.5274 -184.268,136.1444 0,61.426 58.258,100.684 134.238,100.684 71.56,0 116.52,-26.598 141.22,-70.289 l -94.99,-24.063 c -7.6,17.094 -24.06,28.496 -43.06,28.496 -17.73,0 -29.13,-9.504 -29.13,-21.535 0,-44.961 178.57,-13.93 178.57,-137.406 0,-62.0548 -62.05,-103.21890625 -139.94,-103.21890625 -76.619,0 -132.979,31.66020625 -151.971,88.02340625" /><path
         id="path22"
         style="fill:#ec1b29;fill-opacity:1;fill-rule:nonzero;stroke:none"
         d="m 1593.56,280.266 v 15.195 c 0,72.187 56.99,117.777 149.45,117.777 19,0 40.53,-1.894 55.72,-5.062 v -76.621 c -11.39,6.34 -29.12,8.867 -41.79,8.867 -26.59,0 -52.55,-12.031 -52.55,-46.227 v -13.929 h 80.41 v -75.993 h -80.41 V 5.69922 H 1593.56 V 204.273 280.266" /><path
         id="path24"
         style="fill:#ec1b29;fill-opacity:1;fill-rule:nonzero;stroke:none"
         d="m 1834.5,280.266 v 132.972 h 110.82 V 280.266 h 80.42 v -75.993 h -80.42 v -79.531 c 0,-34.1912 25.95,-46.2225 52.56,-46.2225 12.66,0 30.39,2.5274 41.78,8.8594 V 10.7578 c -15.18,-3.16405 -36.73,-5.05858 -55.71,-5.05858 -92.46,0 -149.45,45.59378 -149.45,117.78078 v 80.793 75.993" /></g></g></svg>